<svg xmlns="http://www.w3.org/2000/svg" viewBox="0 0 100 100" width="1024" height="1024">
<defs>
<clipPath id="sbc"><rect x="2" y="2" width="96" height="96" rx="22"/></clipPath>
<filter id="sbblur" filterUnits="userSpaceOnUse" x="-60" y="-60" width="220" height="220"><feGaussianBlur stdDeviation="13"/></filter>
<filter id="sbglow" filterUnits="userSpaceOnUse" x="-20" y="-20" width="140" height="140"><feGaussianBlur stdDeviation="1.6" result="b"/><feMerge><feMergeNode in="b"/><feMergeNode in="SourceGraphic"/></feMerge></filter>
<filter id="sbshadow" filterUnits="userSpaceOnUse" x="-20" y="-20" width="140" height="140"><feGaussianBlur stdDeviation="2.2"/></filter>
<filter id="sbbigglow" filterUnits="userSpaceOnUse" x="-20" y="-20" width="140" height="140"><feGaussianBlur stdDeviation="4"/></filter>
<linearGradient id="sbsheen" x1="0" y1="0" x2="0" y2="1"><stop offset="0" stop-color="#fff" stop-opacity=".16"/><stop offset=".42" stop-color="#fff" stop-opacity="0"/></linearGradient>
<linearGradient id="sbrim" x1="0" y1="0" x2="0.4" y2="1"><stop offset="0" stop-color="#fff" stop-opacity=".55"/><stop offset=".5" stop-color="#fff" stop-opacity=".08"/><stop offset="1" stop-color="#fff" stop-opacity=".22"/></linearGradient>
<linearGradient id="sbspec" x1="0" y1="0" x2="1" y2="1"><stop offset="0" stop-color="#ff8a3d"/><stop offset=".5" stop-color="#8f6bff"/><stop offset="1" stop-color="#5ee7ff"/></linearGradient>
</defs>
<g clip-path="url(#sbc)">
<rect width="100" height="100" fill="#07070d"/>
<g filter="url(#sbblur)"><circle cx="22" cy="18" r="32" fill="#6d4aff"/><circle cx="90" cy="28" r="26" fill="#e0409a"/><circle cx="76" cy="96" r="32" fill="#12b5c9"/><circle cx="8" cy="82" r="26" fill="#2f3fe0"/></g>
<rect width="100" height="100" fill="#05060a" opacity="0.5"/>
<g filter="url(#sbglow)"><g style="mix-blend-mode:normal"><rect x="20.00" y="43.22" width="2.4" height="13.56" fill="#ff6a3d" fill-opacity="0.95"/><rect x="23.50" y="37.12" width="2.4" height="25.76" fill="#ff6a3d" fill-opacity="0.95"/><rect x="27.00" y="40.84" width="2.4" height="18.32" fill="#ff6a3d" fill-opacity="0.95"/><rect x="30.50" y="30.18" width="2.4" height="39.65" fill="#ff6a3d" fill-opacity="0.95"/><rect x="34.00" y="26.93" width="2.4" height="46.14" fill="#ff6a3d" fill-opacity="0.95"/><rect x="37.50" y="33.53" width="2.4" height="32.94" fill="#ff6a3d" fill-opacity="0.95"/><rect x="41.00" y="21.71" width="2.4" height="56.58" fill="#ff6a3d" fill-opacity="0.95"/><rect x="44.50" y="29.10" width="2.4" height="41.79" fill="#ff6a3d" fill-opacity="0.95"/><rect x="48.00" y="19.35" width="2.4" height="61.31" fill="#ff6a3d" fill-opacity="0.95"/><rect x="51.50" y="31.09" width="2.4" height="37.82" fill="#ff6a3d" fill-opacity="0.95"/><rect x="55.00" y="23.49" width="2.4" height="53.01" fill="#ff6a3d" fill-opacity="0.95"/><rect x="58.50" y="36.55" width="2.4" height="26.90" fill="#ff6a3d" fill-opacity="0.95"/><rect x="62.00" y="26.90" width="2.4" height="46.20" fill="#ff6a3d" fill-opacity="0.95"/><rect x="65.50" y="26.31" width="2.4" height="47.37" fill="#ff6a3d" fill-opacity="0.95"/><rect x="69.00" y="31.79" width="2.4" height="36.41" fill="#ff6a3d" fill-opacity="0.95"/><rect x="72.50" y="39.61" width="2.4" height="20.78" fill="#ff6a3d" fill-opacity="0.95"/><rect x="76.00" y="42.64" width="2.4" height="14.71" fill="#ff6a3d" fill-opacity="0.95"/></g><g style="mix-blend-mode:normal"><rect x="20.00" y="44.59" width="2.4" height="10.81" fill="#8f6bff" fill-opacity="0.95"/><rect x="23.50" y="41.35" width="2.4" height="17.30" fill="#8f6bff" fill-opacity="0.95"/><rect x="27.00" y="42.55" width="2.4" height="14.89" fill="#8f6bff" fill-opacity="0.95"/><rect x="30.50" y="35.66" width="2.4" height="28.67" fill="#8f6bff" fill-opacity="0.95"/><rect x="34.00" y="31.37" width="2.4" height="37.26" fill="#8f6bff" fill-opacity="0.95"/><rect x="37.50" y="37.11" width="2.4" height="25.79" fill="#8f6bff" fill-opacity="0.95"/><rect x="41.00" y="27.44" width="2.4" height="45.12" fill="#8f6bff" fill-opacity="0.95"/><rect x="44.50" y="32.98" width="2.4" height="34.04" fill="#8f6bff" fill-opacity="0.95"/><rect x="48.00" y="26.59" width="2.4" height="46.82" fill="#8f6bff" fill-opacity="0.95"/><rect x="51.50" y="34.37" width="2.4" height="31.27" fill="#8f6bff" fill-opacity="0.95"/><rect x="55.00" y="31.11" width="2.4" height="37.79" fill="#8f6bff" fill-opacity="0.95"/><rect x="58.50" y="38.98" width="2.4" height="22.03" fill="#8f6bff" fill-opacity="0.95"/><rect x="62.00" y="34.95" width="2.4" height="30.11" fill="#8f6bff" fill-opacity="0.95"/><rect x="65.50" y="32.51" width="2.4" height="34.98" fill="#8f6bff" fill-opacity="0.95"/><rect x="69.00" y="37.96" width="2.4" height="24.08" fill="#8f6bff" fill-opacity="0.95"/><rect x="72.50" y="41.76" width="2.4" height="16.48" fill="#8f6bff" fill-opacity="0.95"/><rect x="76.00" y="44.36" width="2.4" height="11.28" fill="#8f6bff" fill-opacity="0.95"/></g><g style="mix-blend-mode:normal"><rect x="20.00" y="45.65" width="2.4" height="8.70" fill="#3f9dff" fill-opacity="0.95"/><rect x="23.50" y="42.45" width="2.4" height="15.11" fill="#3f9dff" fill-opacity="0.95"/><rect x="27.00" y="43.90" width="2.4" height="12.20" fill="#3f9dff" fill-opacity="0.95"/><rect x="30.50" y="39.81" width="2.4" height="20.39" fill="#3f9dff" fill-opacity="0.95"/><rect x="34.00" y="35.55" width="2.4" height="28.90" fill="#3f9dff" fill-opacity="0.95"/><rect x="37.50" y="40.97" width="2.4" height="18.07" fill="#3f9dff" fill-opacity="0.95"/><rect x="41.00" y="34.28" width="2.4" height="31.43" fill="#3f9dff" fill-opacity="0.95"/><rect x="44.50" y="37.23" width="2.4" height="25.53" fill="#3f9dff" fill-opacity="0.95"/><rect x="48.00" y="35.03" width="2.4" height="29.94" fill="#3f9dff" fill-opacity="0.95"/><rect x="51.50" y="38.15" width="2.4" height="23.71" fill="#3f9dff" fill-opacity="0.95"/><rect x="55.00" y="35.35" width="2.4" height="29.30" fill="#3f9dff" fill-opacity="0.95"/><rect x="58.50" y="42.01" width="2.4" height="15.99" fill="#3f9dff" fill-opacity="0.95"/><rect x="62.00" y="36.90" width="2.4" height="26.20" fill="#3f9dff" fill-opacity="0.95"/><rect x="65.50" y="35.07" width="2.4" height="29.85" fill="#3f9dff" fill-opacity="0.95"/><rect x="69.00" y="40.36" width="2.4" height="19.29" fill="#3f9dff" fill-opacity="0.95"/><rect x="72.50" y="43.00" width="2.4" height="14.01" fill="#3f9dff" fill-opacity="0.95"/><rect x="76.00" y="45.71" width="2.4" height="8.59" fill="#3f9dff" fill-opacity="0.95"/></g><g style="mix-blend-mode:normal"><rect x="20.00" y="46.81" width="2.4" height="6.38" fill="#7fe6ff" fill-opacity="0.9"/><rect x="23.50" y="44.91" width="2.4" height="10.19" fill="#7fe6ff" fill-opacity="0.9"/><rect x="27.00" y="45.79" width="2.4" height="8.41" fill="#7fe6ff" fill-opacity="0.9"/><rect x="30.50" y="43.27" width="2.4" height="13.47" fill="#7fe6ff" fill-opacity="0.9"/><rect x="34.00" y="40.82" width="2.4" height="18.36" fill="#7fe6ff" fill-opacity="0.9"/><rect x="37.50" y="44.15" width="2.4" height="11.70" fill="#7fe6ff" fill-opacity="0.9"/><rect x="41.00" y="39.88" width="2.4" height="20.25" fill="#7fe6ff" fill-opacity="0.9"/><rect x="44.50" y="41.90" width="2.4" height="16.20" fill="#7fe6ff" fill-opacity="0.9"/><rect x="48.00" y="40.74" width="2.4" height="18.52" fill="#7fe6ff" fill-opacity="0.9"/><rect x="51.50" y="42.24" width="2.4" height="15.52" fill="#7fe6ff" fill-opacity="0.9"/><rect x="55.00" y="40.97" width="2.4" height="18.06" fill="#7fe6ff" fill-opacity="0.9"/><rect x="58.50" y="44.41" width="2.4" height="11.17" fill="#7fe6ff" fill-opacity="0.9"/><rect x="62.00" y="41.59" width="2.4" height="16.82" fill="#7fe6ff" fill-opacity="0.9"/><rect x="65.50" y="41.03" width="2.4" height="17.93" fill="#7fe6ff" fill-opacity="0.9"/><rect x="69.00" y="43.39" width="2.4" height="13.23" fill="#7fe6ff" fill-opacity="0.9"/><rect x="72.50" y="45.31" width="2.4" height="9.39" fill="#7fe6ff" fill-opacity="0.9"/><rect x="76.00" y="46.93" width="2.4" height="6.13" fill="#7fe6ff" fill-opacity="0.9"/></g></g><g filter="url(#sbshadow)" fill="#000" opacity=".95"><rect x="47" y="13" width="6" height="74"/><path d="M43.6 13h12.8L50 21z M43.6 87h12.8L50 79z"/></g><g filter="url(#sbbigglow)" opacity=".9"><rect x="48.9" y="14" width="2.2" height="72" fill="#ffffff"/><path d="M45.4 14h9.2L50 19z M45.4 86h9.2L50 81z" fill="#ffffff"/></g><rect x="49.1" y="14" width="1.8" height="72" fill="#ffffff"/><path d="M45.4 14h9.2L50 19z M45.4 86h9.2L50 81z" fill="#ffffff"/>
<rect width="100" height="100" fill="url(#sbsheen)"/>
</g>
<rect x="2.4" y="2.4" width="95.2" height="95.2" rx="21.6" fill="none" stroke="url(#sbrim)" stroke-width=".8"/>
</svg>