<svg viewBox="0 0 100 100" width="1024" height="1024" xmlns="http://www.w3.org/2000/svg" shape-rendering="geometricPrecision">
<defs>
  <linearGradient id="bg_k" x1="0" y1="0" x2="0" y2="1"><stop offset="0" stop-color="#1a1524"/><stop offset="1" stop-color="#06060c"/></linearGradient>
  <linearGradient id="sheen_k" x1="0" y1="0" x2="0" y2="1"><stop offset="0" stop-color="#fff" stop-opacity="0.14"/><stop offset="0.45" stop-color="#fff" stop-opacity="0"/></linearGradient>
  <radialGradient id="vig_k" cx="0.5" cy="0.42" r="0.75"><stop offset="0.55" stop-color="#000" stop-opacity="0"/><stop offset="1" stop-color="#000" stop-opacity="0.45"/></radialGradient>
  <filter id="glow_k" x="-30%" y="-30%" width="160%" height="160%"><feGaussianBlur stdDeviation="1.3" result="b"/><feMerge><feMergeNode in="b"/><feMergeNode in="SourceGraphic"/></feMerge></filter>
  <linearGradient id="b_k_0" x1="0" y1="0" x2="0" y2="1"><stop offset="0" stop-color="#ffb5a0"/><stop offset="0.55" stop-color="#ff5a2c"/><stop offset="1" stop-color="#e04f27"/></linearGradient><linearGradient id="b_k_1" x1="0" y1="0" x2="0" y2="1"><stop offset="0" stop-color="#f9b2ad"/><stop offset="0.55" stop-color="#f25448"/><stop offset="1" stop-color="#d54a3f"/></linearGradient><linearGradient id="b_k_2" x1="0" y1="0" x2="0" y2="1"><stop offset="0" stop-color="#f4afba"/><stop offset="0.55" stop-color="#e64d65"/><stop offset="1" stop-color="#ca4459"/></linearGradient><linearGradient id="b_k_3" x1="0" y1="0" x2="0" y2="1"><stop offset="0" stop-color="#eeacc6"/><stop offset="0.55" stop-color="#d94781"/><stop offset="1" stop-color="#bf3e72"/></linearGradient><linearGradient id="b_k_4" x1="0" y1="0" x2="0" y2="1"><stop offset="0" stop-color="#e8aad3"/><stop offset="0.55" stop-color="#cc419d"/><stop offset="1" stop-color="#b4398a"/></linearGradient><linearGradient id="b_k_5" x1="0" y1="0" x2="0" y2="1"><stop offset="0" stop-color="#e2a7e0"/><stop offset="0.55" stop-color="#bf3bb9"/><stop offset="1" stop-color="#a834a3"/></linearGradient><linearGradient id="b_k_6" x1="0" y1="0" x2="0" y2="1"><stop offset="0" stop-color="#dda4ed"/><stop offset="0.55" stop-color="#b334d6"/><stop offset="1" stop-color="#9e2ebc"/></linearGradient><linearGradient id="b_k_7" x1="0" y1="0" x2="0" y2="1"><stop offset="0" stop-color="#d7a1f9"/><stop offset="0.55" stop-color="#a62ef2"/><stop offset="1" stop-color="#9228d5"/></linearGradient><linearGradient id="b_k_8" x1="0" y1="0" x2="0" y2="1"><stop offset="0" stop-color="#cfa9fa"/><stop offset="0.55" stop-color="#943ff4"/><stop offset="1" stop-color="#8237d7"/></linearGradient><linearGradient id="b_k_9" x1="0" y1="0" x2="0" y2="1"><stop offset="0" stop-color="#c6b0fb"/><stop offset="0.55" stop-color="#8150f6"/><stop offset="1" stop-color="#7246d8"/></linearGradient><linearGradient id="b_k_10" x1="0" y1="0" x2="0" y2="1"><stop offset="0" stop-color="#beb8fc"/><stop offset="0.55" stop-color="#6f61f8"/><stop offset="1" stop-color="#6255da"/></linearGradient><linearGradient id="b_k_11" x1="0" y1="0" x2="0" y2="1"><stop offset="0" stop-color="#b6c0fc"/><stop offset="0.55" stop-color="#5d73f9"/><stop offset="1" stop-color="#5265db"/></linearGradient><linearGradient id="b_k_12" x1="0" y1="0" x2="0" y2="1"><stop offset="0" stop-color="#aec8fd"/><stop offset="0.55" stop-color="#4b84fb"/><stop offset="1" stop-color="#4274dd"/></linearGradient><linearGradient id="b_k_13" x1="0" y1="0" x2="0" y2="1"><stop offset="0" stop-color="#a5cffe"/><stop offset="0.55" stop-color="#3895fd"/><stop offset="1" stop-color="#3183df"/></linearGradient><linearGradient id="b_k_14" x1="0" y1="0" x2="0" y2="1"><stop offset="0" stop-color="#9dd7ff"/><stop offset="0.55" stop-color="#26a6ff"/><stop offset="1" stop-color="#2192e0"/></linearGradient>
</defs>
<rect x="2" y="2" width="96" height="96" rx="22" fill="url(#bg_k)"/>
<g filter="url(#glow_k)"><rect x="22.00" y="42.90" width="2.33" height="16.20" rx="1.17" fill="url(#b_k_0)"/><rect x="25.83" y="37.50" width="2.33" height="27.00" rx="1.17" fill="url(#b_k_1)"/><rect x="29.67" y="40.20" width="2.33" height="21.60" rx="1.17" fill="url(#b_k_2)"/><rect x="33.50" y="33.18" width="2.33" height="35.64" rx="1.17" fill="url(#b_k_3)"/><rect x="37.33" y="27.78" width="2.33" height="46.44" rx="1.17" fill="url(#b_k_4)"/><rect x="41.17" y="35.88" width="2.33" height="30.24" rx="1.17" fill="url(#b_k_5)"/><rect x="45.00" y="24.00" width="2.33" height="54.00" rx="1.17" fill="url(#b_k_6)"/><rect x="48.83" y="32.10" width="2.33" height="37.80" rx="1.17" fill="url(#b_k_7)"/><rect x="52.67" y="26.70" width="2.33" height="48.60" rx="1.17" fill="url(#b_k_8)"/><rect x="56.50" y="37.50" width="2.33" height="27.00" rx="1.17" fill="url(#b_k_9)"/><rect x="60.33" y="31.56" width="2.33" height="38.88" rx="1.17" fill="url(#b_k_10)"/><rect x="64.17" y="39.66" width="2.33" height="22.68" rx="1.17" fill="url(#b_k_11)"/><rect x="68.00" y="34.80" width="2.33" height="32.40" rx="1.17" fill="url(#b_k_12)"/><rect x="71.83" y="41.28" width="2.33" height="19.44" rx="1.17" fill="url(#b_k_13)"/><rect x="75.67" y="43.98" width="2.33" height="14.04" rx="1.17" fill="url(#b_k_14)"/></g>
<rect x="48.10" y="14" width="3.80" height="72" rx="1.90" fill="#000" fill-opacity="0.42"/><rect x="48.70" y="14.5" width="2.60" height="71" rx="1.30" fill="#ff3b30"/><path d="M 46.30 13 L 53.70 13 L 50.00 19 Z" fill="#ffb020"/>
<rect x="2" y="2" width="96" height="96" rx="22" fill="url(#vig_k)"/>
<rect x="2" y="2" width="96" height="96" rx="22" fill="url(#sheen_k)"/>
<rect x="2.5" y="2.5" width="95" height="95" rx="21.5" fill="none" stroke="#fff" stroke-opacity="0.08"/>
</svg>