<svg xmlns="http://www.w3.org/2000/svg" viewBox="0 0 100 100" width="1024" height="1024">
<defs>
<clipPath id="fvc"><rect x="2" y="2" width="96" height="96" rx="22"/></clipPath>
<filter id="fvblur" filterUnits="userSpaceOnUse" x="-60" y="-60" width="220" height="220"><feGaussianBlur stdDeviation="13"/></filter>
<filter id="fvglow" filterUnits="userSpaceOnUse" x="-20" y="-20" width="140" height="140"><feGaussianBlur stdDeviation="1.6" result="b"/><feMerge><feMergeNode in="b"/><feMergeNode in="SourceGraphic"/></feMerge></filter>
<filter id="fvshadow" filterUnits="userSpaceOnUse" x="-20" y="-20" width="140" height="140"><feGaussianBlur stdDeviation="2.2"/></filter>
<filter id="fvbigglow" filterUnits="userSpaceOnUse" x="-20" y="-20" width="140" height="140"><feGaussianBlur stdDeviation="4"/></filter>
<linearGradient id="fvsheen" x1="0" y1="0" x2="0" y2="1"><stop offset="0" stop-color="#fff" stop-opacity=".16"/><stop offset=".42" stop-color="#fff" stop-opacity="0"/></linearGradient>
<linearGradient id="fvrim" x1="0" y1="0" x2="0.4" y2="1"><stop offset="0" stop-color="#fff" stop-opacity=".55"/><stop offset=".5" stop-color="#fff" stop-opacity=".08"/><stop offset="1" stop-color="#fff" stop-opacity=".22"/></linearGradient>
<linearGradient id="fvspec" x1="0" y1="0" x2="1" y2="1"><stop offset="0" stop-color="#ff8a3d"/><stop offset=".5" stop-color="#8f6bff"/><stop offset="1" stop-color="#5ee7ff"/></linearGradient>
</defs>
<g clip-path="url(#fvc)">
<rect width="100" height="100" fill="#07070d"/>
<g filter="url(#fvblur)"><circle cx="22" cy="18" r="32" fill="#6d4aff"/><circle cx="90" cy="28" r="26" fill="#e0409a"/><circle cx="76" cy="96" r="32" fill="#12b5c9"/><circle cx="8" cy="82" r="26" fill="#2f3fe0"/></g>
<rect width="100" height="100" fill="#05060a" opacity="0.5"/>
<rect x="17.0" y="39.3" width="5" height="21.4" fill="#ff6a3d"/><rect x="24.4" y="30.0" width="5" height="40.0" fill="#ff6a3d"/><rect x="31.8" y="24.8" width="5" height="50.4" fill="#ff6a3d"/><rect x="39.2" y="20.5" width="5" height="59.1" fill="#ff6a3d"/><rect x="46.6" y="19.0" width="5" height="62.0" fill="#ff6a3d"/><rect x="54.0" y="21.9" width="5" height="56.2" fill="#ff6a3d"/><rect x="61.4" y="25.4" width="5" height="49.2" fill="#ff6a3d"/><rect x="68.8" y="30.6" width="5" height="38.8" fill="#ff6a3d"/><rect x="76.2" y="38.7" width="5" height="22.6" fill="#ff6a3d"/><rect x="17.0" y="41.6" width="5" height="16.9" fill="#8f6bff"/><rect x="24.4" y="34.7" width="5" height="30.6" fill="#8f6bff"/><rect x="31.8" y="30.8" width="5" height="38.3" fill="#8f6bff"/><rect x="39.2" y="27.6" width="5" height="44.8" fill="#8f6bff"/><rect x="46.6" y="26.5" width="5" height="46.9" fill="#8f6bff"/><rect x="54.0" y="28.7" width="5" height="42.6" fill="#8f6bff"/><rect x="61.4" y="31.3" width="5" height="37.5" fill="#8f6bff"/><rect x="68.8" y="35.1" width="5" height="29.8" fill="#8f6bff"/><rect x="76.2" y="41.1" width="5" height="17.7" fill="#8f6bff"/><rect x="17.0" y="43.3" width="5" height="13.4" fill="#3f9dff"/><rect x="24.4" y="38.3" width="5" height="23.4" fill="#3f9dff"/><rect x="31.8" y="35.5" width="5" height="29.1" fill="#3f9dff"/><rect x="39.2" y="33.1" width="5" height="33.8" fill="#3f9dff"/><rect x="46.6" y="32.3" width="5" height="35.3" fill="#3f9dff"/><rect x="54.0" y="33.9" width="5" height="32.2" fill="#3f9dff"/><rect x="61.4" y="35.8" width="5" height="28.4" fill="#3f9dff"/><rect x="68.8" y="38.6" width="5" height="22.8" fill="#3f9dff"/><rect x="76.2" y="43.0" width="5" height="14.0" fill="#3f9dff"/><rect x="17.0" y="45.2" width="5" height="9.6" fill="#7fe6ff"/><rect x="24.4" y="42.2" width="5" height="15.5" fill="#7fe6ff"/><rect x="31.8" y="40.6" width="5" height="18.8" fill="#7fe6ff"/><rect x="39.2" y="39.2" width="5" height="21.6" fill="#7fe6ff"/><rect x="46.6" y="38.7" width="5" height="22.6" fill="#7fe6ff"/><rect x="54.0" y="39.6" width="5" height="20.7" fill="#7fe6ff"/><rect x="61.4" y="40.8" width="5" height="18.5" fill="#7fe6ff"/><rect x="68.8" y="42.4" width="5" height="15.1" fill="#7fe6ff"/><rect x="76.2" y="45.0" width="5" height="9.9" fill="#7fe6ff"/><g filter="url(#fvshadow)" fill="#000" opacity=".95"><rect x="45.5" y="11" width="9" height="78"/></g><rect x="47.8" y="12" width="4.4" height="76" fill="#fff"/><path d="M42 12h16L50 21z M42 88h16L50 79z" fill="#fff"/>
<rect width="100" height="100" fill="url(#fvsheen)"/>
</g>
<rect x="2.4" y="2.4" width="95.2" height="95.2" rx="21.6" fill="none" stroke="url(#fvrim)" stroke-width=".8"/>
</svg>